<svg id="Layer_1" data-name="Layer 1" xmlns="http://www.w3.org/2000/svg" viewBox="0 0 556.9 160"><defs><style>.cls-1{fill:#010101;}.cls-2{fill:#ef467f;}</style></defs><polygon class="cls-1" points="33.65 111.65 33.65 160 0 160 0 78 33.65 111.65"/><path class="cls-1" d="M129.43,64.71a64.74,64.74,0,0,1-36.82,58.41L63.93,95.77h1.34A31.07,31.07,0,1,0,33.65,64.71v1.42l-28-28A64.72,64.72,0,0,1,129.43,64.71Z"/><polygon class="cls-2" points="129.43 159.93 129.35 160 81.92 160 40.81 118.89 63.93 95.77 92.61 123.12 129.43 159.93"/><polygon class="cls-2" points="0.3 77.89 0.3 78 0 78 0.3 77.89"/><polygon class="cls-2" points="0.3 77.89 0.3 78 0 78 0.3 77.89"/><polygon class="cls-1" points="0.3 77.99 0 77.99 0.3 77.89 0.3 77.99"/><path class="cls-2" d="M33.65,66.13v45.51L0,78H.3v-.1L0,78V64.7A64.42,64.42,0,0,1,5.68,38.16Z"/><polygon class="cls-2" points="0.3 77.89 0.3 77.99 0 77.99 0.3 77.89"/><polygon class="cls-2" points="0.3 77.89 0.3 77.99 0 77.99 0.3 77.89"/><path class="cls-1" d="M271.91,0V63.6a63.6,63.6,0,0,1-127.2,0V0h32.67V63.6a30.94,30.94,0,0,0,30.15,30.93h1.33A30.92,30.92,0,0,0,239.24,63.6V0Z"/><path class="cls-1" d="M493.3,0a63.6,63.6,0,1,0,63.6,63.6A63.6,63.6,0,0,0,493.3,0Zm.55,94.53h-1.33a31,31,0,1,1,1.33,0Z"/><path class="cls-2" d="M350.8,0a63.6,63.6,0,1,0,63.61,63.6A63.61,63.61,0,0,0,350.8,0Zm.56,94.53H350a31,31,0,1,1,1.33,0Z"/><path class="cls-1" d="M287.2,63.6a63.55,63.55,0,0,0,59.69,63.48c1.3.08,2.6.12,3.91.12V94.54h-.55a30.93,30.93,0,0,1-3.43-61.6h0a31.25,31.25,0,0,1,7.89,0h0A30.93,30.93,0,0,1,381.74,63.6V96.4c0,.66,0,1.31-.07,2a30.93,30.93,0,0,1-26.91,28.72,30.1,30.1,0,0,1-3.18.24h-.78V160a63.21,63.21,0,0,0,30.87-8l.07,0A63.57,63.57,0,0,0,414.41,96.4V63.6a63.61,63.61,0,0,0-127.21,0Z"/></svg>